<mxfile host="app.diagrams.net" modified="2023-04-10T04:02:18.500Z" agent="Mozilla/5.0 (Windows NT 10.0; Win64; x64) AppleWebKit/537.36 (KHTML, like Gecko) Chrome/111.0.0.0 Safari/537.36" etag="LWOFnd6LM2iv6l-N0ZDI" version="21.1.5" type="github">
  <diagram name="지원기능" id="UPAmNvmZ-K9R0Tg9lCOD">
    <mxGraphModel dx="1444" dy="2024" grid="1" gridSize="10" guides="1" tooltips="1" connect="1" arrows="1" fold="1" page="1" pageScale="1" pageWidth="827" pageHeight="1169" math="0" shadow="0">
      <root>
        <mxCell id="0" />
        <mxCell id="1" parent="0" />
        <mxCell id="RSWRGFQSnWnRpEEUj8jb-1" value="일반 회원" style="shape=umlActor;verticalLabelPosition=bottom;verticalAlign=top;html=1;outlineConnect=0;" parent="1" vertex="1">
          <mxGeometry x="40" y="40" width="30" height="60" as="geometry" />
        </mxCell>
        <mxCell id="RSWRGFQSnWnRpEEUj8jb-2" value="회사 회원" style="shape=umlActor;verticalLabelPosition=bottom;verticalAlign=top;html=1;outlineConnect=0;" parent="1" vertex="1">
          <mxGeometry x="40" y="327" width="30" height="60" as="geometry" />
        </mxCell>
        <mxCell id="RSWRGFQSnWnRpEEUj8jb-3" value="지원정보조회" style="ellipse;whiteSpace=wrap;html=1;" parent="1" vertex="1">
          <mxGeometry x="290" y="43" width="100" height="40" as="geometry" />
        </mxCell>
        <mxCell id="RSWRGFQSnWnRpEEUj8jb-8" value="&amp;lt;Extend&amp;gt;" style="edgeStyle=orthogonalEdgeStyle;rounded=0;orthogonalLoop=1;jettySize=auto;html=1;exitX=0;exitY=0.5;exitDx=0;exitDy=0;entryX=1;entryY=0.5;entryDx=0;entryDy=0;shadow=0;fillColor=none;dashed=1;dashPattern=8 8;" parent="1" source="RSWRGFQSnWnRpEEUj8jb-4" edge="1">
          <mxGeometry relative="1" as="geometry">
            <mxPoint x="480" y="64" as="sourcePoint" />
            <mxPoint x="390" y="64" as="targetPoint" />
          </mxGeometry>
        </mxCell>
        <mxCell id="RSWRGFQSnWnRpEEUj8jb-4" value="&amp;nbsp;회사 이름순&lt;br&gt;정렬" style="ellipse;whiteSpace=wrap;html=1;" parent="1" vertex="1">
          <mxGeometry x="540" y="43" width="90" height="40" as="geometry" />
        </mxCell>
        <mxCell id="RSWRGFQSnWnRpEEUj8jb-12" value="지원 취소" style="ellipse;whiteSpace=wrap;html=1;" parent="1" vertex="1">
          <mxGeometry x="540" y="123" width="80" height="40" as="geometry" />
        </mxCell>
        <mxCell id="RSWRGFQSnWnRpEEUj8jb-13" value="&amp;lt;Extend&amp;gt;" style="rounded=0;orthogonalLoop=1;jettySize=auto;html=1;exitX=0;exitY=0.5;exitDx=0;exitDy=0;entryX=1;entryY=0.5;entryDx=0;entryDy=0;shadow=0;fillColor=none;dashed=1;dashPattern=8 8;" parent="1" source="RSWRGFQSnWnRpEEUj8jb-12" target="RSWRGFQSnWnRpEEUj8jb-3" edge="1">
          <mxGeometry relative="1" as="geometry">
            <mxPoint x="550" y="73" as="sourcePoint" />
            <mxPoint x="400" y="74" as="targetPoint" />
          </mxGeometry>
        </mxCell>
        <mxCell id="RSWRGFQSnWnRpEEUj8jb-19" value="" style="endArrow=none;html=1;rounded=0;entryX=0;entryY=0.5;entryDx=0;entryDy=0;exitX=1;exitY=0.3333333333333333;exitDx=0;exitDy=0;exitPerimeter=0;" parent="1" source="RSWRGFQSnWnRpEEUj8jb-1" target="RSWRGFQSnWnRpEEUj8jb-3" edge="1">
          <mxGeometry width="50" height="50" relative="1" as="geometry">
            <mxPoint x="80" y="70" as="sourcePoint" />
            <mxPoint x="460" y="100" as="targetPoint" />
          </mxGeometry>
        </mxCell>
        <mxCell id="RSWRGFQSnWnRpEEUj8jb-20" value="E-mail System" style="shape=umlActor;verticalLabelPosition=bottom;verticalAlign=top;html=1;outlineConnect=0;" parent="1" vertex="1">
          <mxGeometry x="564" y="270" width="30" height="60" as="geometry" />
        </mxCell>
        <mxCell id="RSWRGFQSnWnRpEEUj8jb-22" value="취소 통보" style="endArrow=classic;html=1;rounded=0;entryX=0.5;entryY=0;entryDx=0;entryDy=0;entryPerimeter=0;exitX=0.5;exitY=1;exitDx=0;exitDy=0;" parent="1" source="RSWRGFQSnWnRpEEUj8jb-12" target="RSWRGFQSnWnRpEEUj8jb-20" edge="1">
          <mxGeometry width="50" height="50" relative="1" as="geometry">
            <mxPoint x="410" y="150" as="sourcePoint" />
            <mxPoint x="460" y="100" as="targetPoint" />
          </mxGeometry>
        </mxCell>
        <mxCell id="RSWRGFQSnWnRpEEUj8jb-23" value="지원정보삭제" style="ellipse;whiteSpace=wrap;html=1;" parent="1" vertex="1">
          <mxGeometry x="290" y="230" width="100" height="40" as="geometry" />
        </mxCell>
        <mxCell id="RSWRGFQSnWnRpEEUj8jb-24" value="" style="endArrow=none;html=1;rounded=0;entryX=0;entryY=0.5;entryDx=0;entryDy=0;exitX=1;exitY=0.3333333333333333;exitDx=0;exitDy=0;exitPerimeter=0;" parent="1" source="RSWRGFQSnWnRpEEUj8jb-1" target="RSWRGFQSnWnRpEEUj8jb-23" edge="1">
          <mxGeometry width="50" height="50" relative="1" as="geometry">
            <mxPoint x="80" y="70" as="sourcePoint" />
            <mxPoint x="300" y="73" as="targetPoint" />
          </mxGeometry>
        </mxCell>
        <mxCell id="RSWRGFQSnWnRpEEUj8jb-25" value="마감일&lt;br&gt;확인" style="ellipse;whiteSpace=wrap;html=1;" parent="1" vertex="1">
          <mxGeometry x="299" y="134" width="80" height="38" as="geometry" />
        </mxCell>
        <mxCell id="RSWRGFQSnWnRpEEUj8jb-26" value="&amp;lt;Include&amp;gt;" style="endArrow=classic;html=1;rounded=0;exitX=0.5;exitY=0;exitDx=0;exitDy=0;entryX=0.5;entryY=1;entryDx=0;entryDy=0;dashed=1;dashPattern=8 8;" parent="1" source="RSWRGFQSnWnRpEEUj8jb-23" target="RSWRGFQSnWnRpEEUj8jb-25" edge="1">
          <mxGeometry width="50" height="50" relative="1" as="geometry">
            <mxPoint x="410" y="140" as="sourcePoint" />
            <mxPoint x="460" y="90" as="targetPoint" />
          </mxGeometry>
        </mxCell>
        <mxCell id="RSWRGFQSnWnRpEEUj8jb-27" value="&amp;lt;Extend&amp;gt;" style="endArrow=classic;html=1;rounded=0;entryX=0.5;entryY=1;entryDx=0;entryDy=0;dashed=1;dashPattern=8 8;exitX=0.5;exitY=0;exitDx=0;exitDy=0;" parent="1" source="RSWRGFQSnWnRpEEUj8jb-25" target="RSWRGFQSnWnRpEEUj8jb-3" edge="1">
          <mxGeometry width="50" height="50" relative="1" as="geometry">
            <mxPoint x="340" y="120" as="sourcePoint" />
            <mxPoint x="349" y="108" as="targetPoint" />
          </mxGeometry>
        </mxCell>
        <mxCell id="RSWRGFQSnWnRpEEUj8jb-28" value="" style="swimlane;startSize=0;" parent="1" vertex="1">
          <mxGeometry x="6" y="-28" width="650" height="510" as="geometry" />
        </mxCell>
        <mxCell id="ywEW3Zn0HRga_1FKV1Z--3" value="지원 정보 통계" style="ellipse;whiteSpace=wrap;html=1;" vertex="1" parent="RSWRGFQSnWnRpEEUj8jb-28">
          <mxGeometry x="230" y="327" width="100" height="40" as="geometry" />
        </mxCell>
        <mxCell id="ywEW3Zn0HRga_1FKV1Z--7" value="이메일 발송" style="ellipse;whiteSpace=wrap;html=1;" vertex="1" parent="RSWRGFQSnWnRpEEUj8jb-28">
          <mxGeometry x="4" y="238" width="100" height="40" as="geometry" />
        </mxCell>
        <mxCell id="RSWRGFQSnWnRpEEUj8jb-29" value="&lt;기차 예약 시스템&gt;" style="swimlane;startSize=0;" parent="1" vertex="1">
          <mxGeometry x="730" y="83" width="200" height="200" as="geometry" />
        </mxCell>
        <mxCell id="RSWRGFQSnWnRpEEUj8jb-30" value="기차 예매 취소기능" style="ellipse;whiteSpace=wrap;html=1;" parent="RSWRGFQSnWnRpEEUj8jb-29" vertex="1">
          <mxGeometry x="80" y="40" width="90" height="40" as="geometry" />
        </mxCell>
        <mxCell id="RSWRGFQSnWnRpEEUj8jb-31" value="" style="endArrow=classic;html=1;rounded=0;entryX=0;entryY=0.5;entryDx=0;entryDy=0;exitX=1;exitY=0.5;exitDx=0;exitDy=0;" parent="1" source="RSWRGFQSnWnRpEEUj8jb-12" target="RSWRGFQSnWnRpEEUj8jb-30" edge="1">
          <mxGeometry width="50" height="50" relative="1" as="geometry">
            <mxPoint x="410" y="280" as="sourcePoint" />
            <mxPoint x="460" y="230" as="targetPoint" />
          </mxGeometry>
        </mxCell>
        <mxCell id="ywEW3Zn0HRga_1FKV1Z--2" value="6개월 뒤" style="endArrow=classic;html=1;rounded=0;entryX=1;entryY=0.5;entryDx=0;entryDy=0;exitX=0;exitY=0.5;exitDx=0;exitDy=0;" edge="1" parent="1" source="RSWRGFQSnWnRpEEUj8jb-12" target="RSWRGFQSnWnRpEEUj8jb-23">
          <mxGeometry width="50" height="50" relative="1" as="geometry">
            <mxPoint x="590" y="173" as="sourcePoint" />
            <mxPoint x="589" y="280" as="targetPoint" />
          </mxGeometry>
        </mxCell>
        <mxCell id="ywEW3Zn0HRga_1FKV1Z--5" value="" style="endArrow=none;html=1;rounded=0;exitX=1;exitY=0.3333333333333333;exitDx=0;exitDy=0;exitPerimeter=0;entryX=0;entryY=0.5;entryDx=0;entryDy=0;" edge="1" parent="1" source="RSWRGFQSnWnRpEEUj8jb-1" target="ywEW3Zn0HRga_1FKV1Z--3">
          <mxGeometry width="50" height="50" relative="1" as="geometry">
            <mxPoint x="380" y="180" as="sourcePoint" />
            <mxPoint x="430" y="130" as="targetPoint" />
          </mxGeometry>
        </mxCell>
        <mxCell id="ywEW3Zn0HRga_1FKV1Z--6" value="" style="endArrow=none;html=1;rounded=0;entryX=0;entryY=0.5;entryDx=0;entryDy=0;exitX=1;exitY=0.3333333333333333;exitDx=0;exitDy=0;exitPerimeter=0;" edge="1" parent="1" source="RSWRGFQSnWnRpEEUj8jb-2" target="ywEW3Zn0HRga_1FKV1Z--3">
          <mxGeometry width="50" height="50" relative="1" as="geometry">
            <mxPoint x="70" y="357" as="sourcePoint" />
            <mxPoint x="430" y="130" as="targetPoint" />
          </mxGeometry>
        </mxCell>
        <mxCell id="ywEW3Zn0HRga_1FKV1Z--8" value="" style="endArrow=none;html=1;rounded=0;exitX=0.563;exitY=0.838;exitDx=0;exitDy=0;exitPerimeter=0;entryX=0.5;entryY=0;entryDx=0;entryDy=0;" edge="1" parent="1" source="RSWRGFQSnWnRpEEUj8jb-1" target="ywEW3Zn0HRga_1FKV1Z--7">
          <mxGeometry width="50" height="50" relative="1" as="geometry">
            <mxPoint x="490" y="130" as="sourcePoint" />
            <mxPoint x="540" y="80" as="targetPoint" />
          </mxGeometry>
        </mxCell>
        <mxCell id="ywEW3Zn0HRga_1FKV1Z--9" value="" style="endArrow=none;html=1;rounded=0;exitX=0.5;exitY=1;exitDx=0;exitDy=0;entryX=0.5;entryY=0.5;entryDx=0;entryDy=0;entryPerimeter=0;" edge="1" parent="1" source="ywEW3Zn0HRga_1FKV1Z--7" target="RSWRGFQSnWnRpEEUj8jb-2">
          <mxGeometry width="50" height="50" relative="1" as="geometry">
            <mxPoint x="490" y="130" as="sourcePoint" />
            <mxPoint x="540" y="80" as="targetPoint" />
          </mxGeometry>
        </mxCell>
      </root>
    </mxGraphModel>
  </diagram>
</mxfile>
